<svg xmlns="http://www.w3.org/2000/svg" width="1200" height="630" viewBox="0 0 1200 630">
  <defs>
    <linearGradient id="bg" x1="0" y1="0" x2="1200" y2="630" gradientUnits="userSpaceOnUse">
      <stop stop-color="#0A0E1A"/><stop offset="1" stop-color="#1A1240"/>
    </linearGradient>
    <linearGradient id="g" x1="0" y1="0" x2="1" y2="1">
      <stop stop-color="#6366F1"/><stop offset="0.55" stop-color="#06B6D4"/><stop offset="1" stop-color="#A3E635"/>
    </linearGradient>
    <radialGradient id="glow" cx="0.8" cy="0.2" r="0.6">
      <stop stop-color="#4F46E5" stop-opacity="0.5"/><stop offset="1" stop-color="#4F46E5" stop-opacity="0"/>
    </radialGradient>
  </defs>
  <rect width="1200" height="630" fill="url(#bg)"/>
  <rect width="1200" height="630" fill="url(#glow)"/>
  <g transform="translate(90,90)">
    <rect width="92" height="92" rx="26" fill="url(#g)"/>
    <path d="M30 26c0 12 33 16 33 30a11 11 0 0 1-22 0" stroke="#fff" stroke-width="6" stroke-linecap="round" fill="none"/>
    <path d="M62 66c0-12-33-16-33-30a11 11 0 0 1 22 0" stroke="#fff" stroke-width="6" stroke-linecap="round" fill="none" opacity="0.85"/>
  </g>
  <text x="210" y="158" font-family="Space Grotesk, Arial, sans-serif" font-size="44" font-weight="700" fill="#fff">PepCare</text>
  <text x="90" y="320" font-family="Space Grotesk, Arial, sans-serif" font-size="86" font-weight="700" fill="#fff">Compounds your protocol</text>
  <text x="90" y="418" font-family="Space Grotesk, Arial, sans-serif" font-size="86" font-weight="700" fill="url(#g)">can actually trust.</text>
  <text x="90" y="500" font-family="Inter, Arial, sans-serif" font-size="32" fill="#A6B6CF">HPLC &amp; MS verified · Batch COAs · Cold-chain shipping</text>
  <g transform="translate(92,548)">
    <rect width="320" height="46" rx="23" fill="none" stroke="#3A4566" stroke-width="1.5"/>
    <text x="24" y="30" font-family="JetBrains Mono, monospace" font-size="20" fill="#A3E635" letter-spacing="2">⚗ RESEARCH USE ONLY</text>
  </g>
</svg>
